<svg xmlns="http://www.w3.org/2000/svg" viewBox="0 0 1536 1024" width="1536" height="1024"><defs><mask id="fir-left-low-shape" maskUnits="userSpaceOnUse" x="0" y="0" width="1536" height="1024"><path fill="white" stroke="white" stroke-width="10" stroke-linejoin="round" d="M157 846 L165 864 L174 871 L169 873 L183 889 L173 887 L191 909 L179 906 L197 934 L183 928 L203 958 L190 952 L215 990 L183 983 L171 1013 L151 1024 L138 1006 L139 984 L107 996 L123 970 L103 980 L124 949 L113 952 L134 922 L123 927 L140 900 L132 903 L147 880 L145 879Z"/></mask><mask id="fir-left-low-visible" maskUnits="userSpaceOnUse" x="0" y="0" width="1536" height="1024"><path fill="white" stroke="white" stroke-width="10" stroke-linejoin="round" d="M157 846 L165 864 L174 871 L169 873 L183 889 L173 887 L191 909 L179 906 L197 934 L183 928 L203 958 L190 952 L215 990 L183 983 L171 1013 L151 1024 L138 1006 L139 984 L107 996 L123 970 L103 980 L124 949 L113 952 L134 922 L123 927 L140 900 L132 903 L147 880 L145 879Z"/><path fill="black" stroke="black" stroke-width="10" stroke-linejoin="round" d="M250 822 L254 839 L263 850 L258 852 L272 869 L264 868 L281 888 L269 885 L288 909 L275 905 L295 930 L281 926 L302 952 L275 946 L264 976 L250 992 L240 979 L236 951 L208 961 L224 937 L207 944 L225 917 L215 923 L234 895 L222 901 L238 875 L231 879 L246 853 L243 849Z"/><path fill="black" stroke="black" stroke-width="10" stroke-linejoin="round" d="M471 870 L476 886 L484 897 L480 900 L495 916 L485 915 L503 937 L490 932 L507 956 L493 953 L514 980 L496 974 L518 1000 L488 995 L488 1024 H458 L454 997 L423 1007 L440 984 L425 990 L445 962 L433 968 L453 940 L441 945 L459 918 L453 921 L466 896Z"/><path fill="black" stroke="black" stroke-width="10" stroke-linejoin="round" d="M697 851 L702 869 L711 880 L706 881 L719 898 L711 898 L727 918 L716 915 L735 939 L720 936 L741 959 L715 955 L709 991 L694 1007 L683 993 L681 957 L655 964 L672 940 L660 947 L679 917 L670 921 L686 896 L681 897 L693 873Z"/><path fill="black" stroke="black" stroke-width="10" stroke-linejoin="round" d="M1380 530 L1383 549 L1392 560 L1387 560 L1400 576 L1390 573 L1407 591 L1394 588 L1412 611 L1396 606 L1419 632 L1401 627 L1425 654 L1406 649 L1427 677 L1401 667 L1395 708 L1377 725 L1365 711 L1365 670 L1342 679 L1356 655 L1337 662 L1357 633 L1345 640 L1362 611 L1352 615 L1370 588 L1361 591 L1377 562 L1372 563Z"/><path fill="black" stroke="black" stroke-width="10" stroke-linejoin="round" d="M1440 575 L1444 592 L1453 605 L1446 604 L1460 624 L1450 621 L1467 646 L1453 640 L1476 667 L1457 659 L1474 691 L1454 684 L1451 714 L1435 725 L1426 711 L1424 686 L1405 693 L1418 672 L1403 677 L1420 649 L1413 652 L1429 625 L1424 627 L1437 600Z"/><path fill="black" stroke="none" stroke-width="0" stroke-linejoin="round" d="M1120 648 L1140 640 L1140 624 L1127 624 L1127 608 L1182 575 L1182 537 L1210 537 L1210 571 L1268 543 L1300 565 L1300 528 L1321 528 L1321 574 L1366 600 L1366 618 L1349 620 L1349 637 L1374 640 L1374 685 L1363 685 L1342 747 L1317 748 L1288 741 L1248 749 L1191 742 L1134 742 L1134 688 L1120 687Z"/><path fill="black" stroke="none" stroke-width="0" stroke-linejoin="round" d="M1157 623 L1244 606 L1244 638 L1157 653Z"/><path fill="black" stroke="none" stroke-width="0" stroke-linejoin="round" d="M1255 606 L1297 613 L1297 642 L1255 637Z"/><path fill="black" stroke="none" stroke-width="0" stroke-linejoin="round" d="M1318 615 L1333 619 L1333 646 L1318 643Z"/></mask></defs><image href="/assets/img/home/lookout-valley.png" x="0" y="0" width="1536" height="1024" mask="url(#fir-left-low-visible)"/></svg>
