<svg xmlns="http://www.w3.org/2000/svg" viewBox="0 0 1536 1024" width="1536" height="1024"><defs><mask id="window-light-shape" maskUnits="userSpaceOnUse" x="0" y="0" width="1536" height="1024"><path fill="white" stroke="none" stroke-width="0" stroke-linejoin="round" d="M1157 623 L1244 606 L1244 638 L1157 653Z"/><path fill="white" stroke="none" stroke-width="0" stroke-linejoin="round" d="M1255 606 L1297 613 L1297 642 L1255 637Z"/><path fill="white" stroke="none" stroke-width="0" stroke-linejoin="round" d="M1318 615 L1333 619 L1333 646 L1318 643Z"/></mask><mask id="window-light-visible" maskUnits="userSpaceOnUse" x="0" y="0" width="1536" height="1024"><path fill="white" stroke="none" stroke-width="0" stroke-linejoin="round" d="M1157 623 L1244 606 L1244 638 L1157 653Z"/><path fill="white" stroke="none" stroke-width="0" stroke-linejoin="round" d="M1255 606 L1297 613 L1297 642 L1255 637Z"/><path fill="white" stroke="none" stroke-width="0" stroke-linejoin="round" d="M1318 615 L1333 619 L1333 646 L1318 643Z"/></mask></defs><image href="/assets/img/home/lookout-valley.png" x="0" y="0" width="1536" height="1024" mask="url(#window-light-visible)"/></svg>
